<svg xmlns="http://www.w3.org/2000/svg">
  <symbol id="i-dashboard" viewBox="0 0 24 24"><rect x="3" y="3" width="7" height="9" rx="2"/><rect x="14" y="3" width="7" height="5" rx="2"/><rect x="14" y="12" width="7" height="9" rx="2"/><rect x="3" y="16" width="7" height="5" rx="2"/></symbol>
  <symbol id="i-server" viewBox="0 0 24 24"><rect x="3" y="4" width="18" height="6" rx="2"/><rect x="3" y="14" width="18" height="6" rx="2"/><path d="M7 7h.01M7 17h.01M11 7h6M11 17h6"/></symbol>
  <symbol id="i-plus-circle" viewBox="0 0 24 24"><circle cx="12" cy="12" r="9"/><path d="M12 8v8M8 12h8"/></symbol>
  <symbol id="i-folder" viewBox="0 0 24 24"><path d="M3 7.5A2.5 2.5 0 0 1 5.5 5H10l2 2h6.5A2.5 2.5 0 0 1 21 9.5v7A2.5 2.5 0 0 1 18.5 19h-13A2.5 2.5 0 0 1 3 16.5z"/></symbol>
  <symbol id="i-network" viewBox="0 0 24 24"><rect x="9" y="3" width="6" height="5" rx="1.5"/><rect x="3" y="16" width="6" height="5" rx="1.5"/><rect x="15" y="16" width="6" height="5" rx="1.5"/><path d="M12 8v4M6 16v-2a2 2 0 0 1 2-2h8a2 2 0 0 1 2 2v2"/></symbol>
  <symbol id="i-template" viewBox="0 0 24 24"><rect x="5" y="3" width="14" height="14" rx="2"/><path d="M8 7h8M8 11h5M9 21h6M12 17v4"/></symbol>
  <symbol id="i-history" viewBox="0 0 24 24"><path d="M3 12a9 9 0 1 0 3-6.7L3 8"/><path d="M3 3v5h5M12 7v5l3 2"/></symbol>
  <symbol id="i-users" viewBox="0 0 24 24"><path d="M16 21v-2a4 4 0 0 0-4-4H7a4 4 0 0 0-4 4v2"/><circle cx="9.5" cy="7" r="4"/><path d="M17 11a4 4 0 0 1 4 4v2M16 3.5a4 4 0 0 1 0 7"/></symbol>
  <symbol id="i-infrastructure" viewBox="0 0 24 24"><rect x="4" y="3" width="16" height="18" rx="2"/><path d="M8 7h8M8 11h8M8 15h4M16 15h.01M8 18h.01M12 18h.01M16 18h.01"/></symbol>
  <symbol id="i-proxmox" viewBox="0 0 24 24"><path d="m12 2 8 4.5v9L12 20l-8-4.5v-9z"/><path d="m4.5 6.8 7.5 4.3 7.5-4.3M12 11v9"/><circle cx="12" cy="11" r="2.2"/></symbol>
  <symbol id="i-storage" viewBox="0 0 24 24"><path d="M4 6.5A2.5 2.5 0 0 1 6.5 4h11A2.5 2.5 0 0 1 20 6.5v11a2.5 2.5 0 0 1-2.5 2.5h-11A2.5 2.5 0 0 1 4 17.5z"/><circle cx="12" cy="12" r="4"/><circle cx="12" cy="12" r="1"/><path d="M16.5 7.5h.01"/></symbol>
  <symbol id="i-sliders" viewBox="0 0 24 24"><path d="M4 6h8M16 6h4M4 12h3M11 12h9M4 18h10M18 18h2"/><circle cx="14" cy="6" r="2"/><circle cx="9" cy="12" r="2"/><circle cx="16" cy="18" r="2"/></symbol>
  <symbol id="i-gauge" viewBox="0 0 24 24"><path d="M4.9 19a9 9 0 1 1 14.2 0"/><path d="m12 12 4-4M7 17h.01M17 17h.01M6.8 10h.01M17.2 10h.01"/><circle cx="12" cy="12" r="1.5"/></symbol>
  <symbol id="i-audit" viewBox="0 0 24 24"><path d="M9 5H6a2 2 0 0 0-2 2v12a2 2 0 0 0 2 2h12a2 2 0 0 0 2-2V7a2 2 0 0 0-2-2h-3"/><rect x="9" y="3" width="6" height="4" rx="1"/><path d="m8 13 2 2 5-5M8 18h8"/></symbol>
  <symbol id="i-settings" viewBox="0 0 24 24"><circle cx="12" cy="12" r="3"/><path d="M19.4 15a1.7 1.7 0 0 0 .3 1.9l.1.1-2.8 2.8-.1-.1a1.7 1.7 0 0 0-1.9-.3 1.7 1.7 0 0 0-1 1.6v.2h-4V21a1.7 1.7 0 0 0-1-1.6 1.7 1.7 0 0 0-1.9.3l-.1.1L4.2 17l.1-.1a1.7 1.7 0 0 0 .3-1.9A1.7 1.7 0 0 0 3 14H2.8v-4H3a1.7 1.7 0 0 0 1.6-1 1.7 1.7 0 0 0-.3-1.9L4.2 7 7 4.2l.1.1A1.7 1.7 0 0 0 9 4.6 1.7 1.7 0 0 0 10 3V2.8h4V3a1.7 1.7 0 0 0 1 1.6 1.7 1.7 0 0 0 1.9-.3l.1-.1L19.8 7l-.1.1a1.7 1.7 0 0 0-.3 1.9 1.7 1.7 0 0 0 1.6 1h.2v4H21a1.7 1.7 0 0 0-1.6 1Z"/></symbol>
  <symbol id="i-log-out" viewBox="0 0 24 24"><path d="M10 5H6a2 2 0 0 0-2 2v10a2 2 0 0 0 2 2h4M14 8l4 4-4 4M18 12H9"/></symbol>
  <symbol id="i-menu" viewBox="0 0 24 24"><path d="M4 7h16M4 12h16M4 17h16"/></symbol>
  <symbol id="i-theme" viewBox="0 0 24 24"><path d="M20.5 14.5A8.5 8.5 0 0 1 9.5 3.5 8.5 8.5 0 1 0 20.5 14.5Z"/><path d="M17 3v2M16 4h2M20 7v2M19 8h2"/></symbol>
  <symbol id="i-check" viewBox="0 0 24 24"><path d="m5 12 4.5 4.5L19 7"/></symbol>
  <symbol id="i-circle" viewBox="0 0 24 24"><circle cx="12" cy="12" r="8"/></symbol>
  <symbol id="i-cloud" viewBox="0 0 24 24"><path d="M17.5 19H7a5 5 0 1 1 1-9.9A6 6 0 0 1 19.5 11 4 4 0 0 1 17.5 19Z"/><path d="M9 15h6M12 12v6"/></symbol>
  <symbol id="i-database" viewBox="0 0 24 24"><ellipse cx="12" cy="5" rx="8" ry="3"/><path d="M4 5v6c0 1.7 3.6 3 8 3s8-1.3 8-3V5M4 11v6c0 1.7 3.6 3 8 3s8-1.3 8-3v-6"/></symbol>
  <symbol id="i-shield-check" viewBox="0 0 24 24"><path d="M12 3 20 6v5c0 5-3.4 8.4-8 10-4.6-1.6-8-5-8-10V6z"/><path d="m8.5 12 2.2 2.2 4.8-5"/></symbol>
  <symbol id="i-file-lock" viewBox="0 0 24 24"><path d="M14 3H6a2 2 0 0 0-2 2v14a2 2 0 0 0 2 2h12a2 2 0 0 0 2-2V9z"/><path d="M14 3v6h6M9 15v-1a3 3 0 0 1 6 0v1"/><rect x="8" y="15" width="8" height="5" rx="1"/></symbol>
  <symbol id="i-lock" viewBox="0 0 24 24"><rect x="4" y="10" width="16" height="11" rx="2"/><path d="M8 10V7a4 4 0 0 1 8 0v3M12 14v3"/></symbol>
  <symbol id="i-loader" viewBox="0 0 24 24"><path d="M12 3a9 9 0 0 1 9 9M12 21a9 9 0 0 1-9-9"/></symbol>
  <symbol id="i-x" viewBox="0 0 24 24"><path d="m7 7 10 10M17 7 7 17"/></symbol>
  <symbol id="i-plus" viewBox="0 0 24 24"><path d="M12 5v14M5 12h14"/></symbol>
  <symbol id="i-play" viewBox="0 0 24 24"><path d="m8 5 11 7-11 7z"/></symbol>
  <symbol id="i-power" viewBox="0 0 24 24"><path d="M12 3v9M6.4 6.4a8 8 0 1 0 11.2 0"/></symbol>
  <symbol id="i-stop" viewBox="0 0 24 24"><rect x="6" y="6" width="12" height="12" rx="1"/></symbol>
  <symbol id="i-refresh" viewBox="0 0 24 24"><path d="M20 7v5h-5M4 17v-5h5"/><path d="M18.5 9A7 7 0 0 0 6 7l-2 5M5.5 15A7 7 0 0 0 18 17l2-5"/></symbol>
  <symbol id="i-terminal" viewBox="0 0 24 24"><rect x="3" y="4" width="18" height="16" rx="2"/><path d="m7 9 3 3-3 3M13 15h4"/></symbol>
  <symbol id="i-camera" viewBox="0 0 24 24"><path d="M5 7h3l1.5-2h5L16 7h3a2 2 0 0 1 2 2v9H3V9a2 2 0 0 1 2-2Z"/><circle cx="12" cy="12.5" r="3"/></symbol>
  <symbol id="i-maximize" viewBox="0 0 24 24"><path d="M8 3H3v5M16 3h5v5M8 21H3v-5M16 21h5v-5M3 8l6-5M21 8l-6-5M3 16l6 5M21 16l-6 5"/></symbol>
  <symbol id="i-user-plus" viewBox="0 0 24 24"><circle cx="9" cy="8" r="4"/><path d="M3 21v-2a6 6 0 0 1 12 0v2M18 8v6M15 11h6"/></symbol>
  <symbol id="i-trash" viewBox="0 0 24 24"><path d="M4 7h16M9 7V4h6v3M7 7l1 14h8l1-14M10 11v6M14 11v6"/></symbol>
  <symbol id="i-arrow-left" viewBox="0 0 24 24"><path d="m14 6-6 6 6 6M8 12h11"/></symbol>
  <symbol id="i-arrow-right" viewBox="0 0 24 24"><path d="m10 6 6 6-6 6M5 12h11"/></symbol>
  <symbol id="i-inbox" viewBox="0 0 24 24"><path d="M4 5h16l2 10v4H2v-4z"/><path d="M2 15h6l2 2h4l2-2h6"/></symbol>
  <symbol id="i-alert-circle" viewBox="0 0 24 24"><circle cx="12" cy="12" r="9"/><path d="M12 7v6M12 17h.01"/></symbol>
  <symbol id="i-save" viewBox="0 0 24 24"><path d="M5 3h12l3 3v15H4V4a1 1 0 0 1 1-1Z"/><path d="M8 3v6h8V3M8 21v-7h8v7"/></symbol>
  <symbol id="i-eye" viewBox="0 0 24 24"><path d="M2.5 12s3.5-6 9.5-6 9.5 6 9.5 6-3.5 6-9.5 6-9.5-6-9.5-6Z"/><circle cx="12" cy="12" r="2.5"/></symbol>
  <symbol id="i-link" viewBox="0 0 24 24"><path d="M10 13a5 5 0 0 0 7.5.5l2-2a5 5 0 0 0-7-7l-1.2 1.2M14 11a5 5 0 0 0-7.5-.5l-2 2a5 5 0 0 0 7 7l1.2-1.2"/></symbol>
  <symbol id="i-key" viewBox="0 0 24 24"><circle cx="8" cy="15" r="4"/><path d="m11 12 8-8M16 7l2 2M14 9l2 2"/></symbol>
  <symbol id="i-ban" viewBox="0 0 24 24"><circle cx="12" cy="12" r="9"/><path d="m5.7 5.7 12.6 12.6"/></symbol>
</svg>
